# xmcd
#
# Track frame offsets:
#	150
#	14994
#	32584
#	46289
#	63297
#	80928
#	95942
#	109722
#	127750
#	141167
#	156110
#	175997
#
# Disc length: 2577 seconds
#
# Revision: 0
# Processed by: cddbd v1.5.2PL0 Copyright (c) Steve Scherf et al.
# Submitted via: EasyCDDAExtractor 15.3.0.1
#
DISCID=a60a0f0c
DTITLE=Daniela Romo - Para Soñar - CD 1
DYEAR=2012
DGENRE=Latin
TTITLE0=A Veces
TTITLE1=Adelante Corazon
TTITLE2=Dueña De Mi Corazon
TTITLE3=Para Soñar (Dueto Con Francisco Cespedes)
TTITLE4=De Mi Enamorate
TTITLE5=Ayer Perdi Mi Corazon
TTITLE6=Celos (Dueto Con Mijares)
TTITLE7=Abuso
TTITLE8=Mia
TTITLE9=Mentiras (Dueto Con Gloria Trevi)
TTITLE10=Yo No Te Pido La Luna
TTITLE11=La Ocasion Para Amarnos (Dueto Con Fela)
EXTD=
EXTT0=
EXTT1=
EXTT2=
EXTT3=
EXTT4=
EXTT5=
EXTT6=
EXTT7=
EXTT8=
EXTT9=
EXTT10=
EXTT11=
PLAYORDER=
